<svg data-v-0dd9719b="" version="1.0" xmlns="http://www.w3.org/2000/svg" xmlns:xlink="http://www.w3.org/1999/xlink" width="100%" height="100%" viewBox="0 0 340.000000 250.000000" preserveAspectRatio="xMidYMid meet" color-interpolation-filters="sRGB" style="margin: auto;"> <rect data-v-0dd9719b="" x="0" y="0" width="100%" height="100%" fill="#fff" fill-opacity="1" class="background"></rect> <rect data-v-0dd9719b="" x="0" y="0" width="100%" height="100%" fill="url(#watermark)" fill-opacity="1" class="watermarklayer"></rect> <g data-v-0dd9719b="" fill="#333" class="icon-text-wrapper icon-svg-group iconsvg" transform="translate(47.625,96.44593811035156)"><g class="iconsvg-imagesvg" transform="translate(0,2.933837890625)"><g><rect fill="#333" fill-opacity="0" stroke-width="2" x="0" y="0" width="60" height="51.24044579187839" class="image-rect"></rect> <svg x="0" y="0" width="60" height="51.24044579187839" filtersec="colorsb9045906429" class="image-svg-svg primary" style="overflow: visible;"><svg xmlns="http://www.w3.org/2000/svg" viewBox="0 0.002696990966796875 136.18997192382812 116.30729675292969"><title>资源 112</title><g fill-rule="evenodd"><path d="M131.1 18.71C98.4-7.54 21.43 39.55 1.5 55.15c8.21-8.23 16.2-14.93 25.69-20.43a55.53 55.53 0 0 0-10 5.05c6.17-31.45 41.4-47.62 70.14-36a65.61 65.61 0 0 0-14.56 4.91c20.07-6.15 45-7.2 58.33 10zM57 116.31s-12.11-4.86-20.44-25.06a51.35 51.35 0 0 1-17.5-25.71l7.59-6L0 70c15.71-10.31 27.56-17.75 45.26-25.7-11.49 39.43-1.11 64.81 11.7 72z" fill="#e50012"></path><path d="M127.41 59.71C146.9 22.64 119.05 30 96.26 34.5A148.48 148.48 0 0 1 116 32.9a50.93 50.93 0 0 1 1.09 33c-7 23-28.2 38.07-53.67 36a132.79 132.79 0 0 1 .77-21.33C62.41 94.14 55.79 124.38 82 105c-18 17.08-26.18 8.68-28.19-8.32-2-16.86 2.08-42.18 8.62-59.49C78.78 30.94 95 26.31 108.1 24.8c24.64-2.84 38 5.42 19.31 34.91z" fill="#004379"></path></g></svg></svg> <!----></g></g> <g transform="translate(67,0)"><g data-gra="path-name" fill-rule="" class="tp-name iconsvg-namesvg" transform="translate(0,0)"><g transform="scale(1)"><g><path d="M43.42-20.2L43.42-18.9 24.39-18.9Q27.45-6.71 43.92-1.44L43.92-1.44 43.88-0.9Q39.82-0.14 39.24 4L39.24 4Q26.73-2.25 23.8-17.68L23.8-17.68Q23.18-13.9 21.82-10.89L21.82-10.89Q20.52-7.92 18-5.13L18-5.13Q15.52-2.34 11.47-0.04L11.47-0.04Q7.42 2.21 1.71 4L1.71 4 1.35 3.33Q5.85 1.17 9-1.3L9-1.3Q12.15-3.82 14.04-6.66 15.93-9.49 16.88-12.38L16.88-12.38Q17.86-15.3 18.31-18.9L18.31-18.9 2.92-18.9 2.56-20.2 18.45-20.2Q18.77-23.85 18.77-31.99L18.77-31.99 5.54-31.99 5.17-33.3 40.73-33.3 40.73-31.99 24.75-31.99Q24.57-23.89 24.21-20.2L24.21-20.2 43.42-20.2ZM49.45-37.39L49.45-37.39 49.81-37.66Q55.94-37.17 57.6-34.2L57.6-34.2Q58.63-32.45 57.51-31L57.51-31Q56.38-29.52 54.41-30.2L54.41-30.2Q54-30.33 53.59-30.6L53.59-30.6Q52.74-33.84 49.45-37.39ZM46.08-27.36L46.08-27.36 46.48-27.68Q52.34-26.95 53.69-24.03L53.69-24.03Q54.54-22.27 53.33-20.97L53.33-20.97Q52.11-19.62 50.27-20.47L50.27-20.47Q49.95-20.61 49.59-20.88L49.59-20.88Q49.32-22.54 48.33-24.3L48.33-24.3Q47.34-26.1 46.08-27.36ZM58.05-29.61L58.05-29.61 58.77-29.43Q54.99-15.66 54.31-12.01L54.31-12.01Q53.69-9.45 53.73-7.83L53.73-7.83Q53.77-6.93 54.67-4.46 55.58-1.98 55.48 0.32L55.48 0.32Q55.39 2.02 54.41 3.01L54.41 3.01Q53.41 4.05 51.84 4.05L51.84 4.05Q49.95 4.05 49.5 1.71L49.5 1.71Q50.09-1.84 49.95-4.63L49.95-4.63Q49.86-7.42 49.09-7.96L49.09-7.96Q48.28-8.55 46.84-8.69L46.84-8.69 46.84-9.54 48.78-9.54Q49.32-9.54 49.55-9.67L49.55-9.67Q49.77-9.86 50.09-10.53L50.09-10.53Q50.89-12.11 58.05-29.61ZM73.31-24.61L73.31-19.53 79.06-19.53 79.06-24.61 73.31-24.61ZM79.06-30.87L73.31-30.87 73.31-25.92 79.06-25.92 79.06-30.87ZM79.88-16.29L79.88-16.29 79.06-16.29 79.06-18.27 73.31-18.27 73.31-12.96 79.11-12.96 81.85-16.47Q80.95-16.29 79.88-16.29ZM82.39-16.74L82.39-16.74Q84.91-14.08 86.76-12.38L86.76-12.38Q86.63-11.65 85.55-11.65L85.55-11.65 73.31-11.65 73.31-6.03 88.88-6.03 88.88-4.81 73.31-4.81 73.31 2.11Q73.31 2.56 71.91 3.24L71.91 3.24Q70.52 3.96 69.16 3.96L69.16 3.96 68.13 3.96 68.13-4.81 56.92-4.81 56.56-6.03 68.13-6.03 68.13-11.65 58.37-11.65 58-12.96 68.13-12.96 68.13-18.27 59.35-18.27 58.95-19.53 68.13-19.53 68.13-24.61 58.19-24.61 57.83-25.92 68.13-25.92 68.13-30.87 59.76-30.87 59.35-32.13 68.13-32.13 68.13-38.02 73.31-37.35 73.31-32.13 83.92-32.13 83.92-25.92 89.64-25.92 89.64-24.61 83.92-24.61 83.92-17.46Q83.88-17.19 82.39-16.74ZM91.75-32.98L133.47-32.98 133.47-31.68Q133.47-31.68 111.24-31.68L111.24-31.68Q111.06-25.65 110.61-22.05L110.61-22.05 126.5-22.05 126.5-19.84Q125.32-1.93 121.55 1.21L121.55 1.21Q119.11 3.24 114.8 3.24L114.8 3.24Q114.8 0.54 113.72-0.4L113.72-0.4Q112.41-1.62 108.36-2.43L108.36-2.43 108.41-3.06Q112.95-2.56 115.97-2.56L115.97-2.56Q117.09-2.56 117.81-3.06L117.81-3.06Q120.15-5.08 121.19-20.75L121.19-20.75 110.43-20.75Q109.84-16.96 108.72-13.77 107.59-10.57 105.53-7.33L105.53-7.33Q103.45-4.14 100.08-1.26 96.7 1.62 92.03 4L92.03 4 91.53 3.33Q94.32 1.13 96.48-1.4L96.48-1.4Q98.69-3.92 100.08-6.12L100.08-6.12Q101.52-8.37 102.51-11.21L102.51-11.21Q103.55-14.08 104.04-16.2L104.04-16.2Q104.58-18.31 104.85-21.42L104.85-21.42Q105.16-24.57 105.21-26.46L105.21-26.46Q105.25-28.39 105.3-31.68L105.3-31.68 92.11-31.68 91.75-32.98ZM155.75-26.01L148.14-26.01 148.14-22.5Q153.59-20.84 154.66-17.77L154.66-17.77Q155.34-15.79 153.99-14.63L153.99-14.63Q152.64-13.46 150.93-14.54L150.93-14.54Q150.66-14.76 150.39-14.98L150.39-14.98Q150.25-18.04 148.14-21.6L148.14-21.6 148.14 2.52Q148.14 2.92 146.79 3.46L146.79 3.46Q145.49 4.05 144.13 4.05L144.13 4.05 143.1 4.05 143.1-14.31Q140.4-9.95 136.62-6.57L136.62-6.57 136.08-7.06Q140.53-14.13 142.43-26.01L142.43-26.01 136.75-26.01 136.4-27.27 143.1-27.27 143.1-38.25 148.14-37.62 148.14-27.27 155.75-27.27 155.75-26.01ZM176.89-7.92L177.39-7.92 177.57-2.29Q179.1-1.48 179.1-0.18L179.1-0.18Q179.1 1.3 177.7 1.98L177.7 1.98Q176.31 2.7 173.25 2.7L173.25 2.7 171.27 2.7Q168.84 2.7 168.07 1.75L168.07 1.75Q167.31 0.85 167.31-1.57L167.31-1.57 167.31-32.98 161.64-32.98 161.64-18.54Q161.64-15.52 161.46-13.37 161.28-11.21 160.6-8.46L160.6-8.46Q159.93-5.76 158.67-3.69L158.67-3.69Q157.45-1.62 155.16 0.45L155.16 0.45Q152.87 2.56 149.67 4.14L149.67 4.14 149.22 3.78Q153.68-0.32 155.12-5.58L155.12-5.58Q156.6-10.89 156.6-18.5L156.6-18.5 156.6-36.36 162.45-34.24 172.44-34.24 172.44-3.01Q172.44-2.11 173.03-2.11L173.03-2.11 174.56-2.11Q175.09-2.21 175.37-2.56L175.37-2.56Q175.95-3.51 176.89-7.92L176.89-7.92Z" transform="translate(-1.350000023841858, 38.25)"></path></g> <!----> <!----> <!----> <!----> <!----> <!----> <!----></g></g> <g data-gra="path-slogan" fill-rule="" class="tp-slogan iconsvg-slogansvg" fill="#333" transform="translate(5,48.38999938964844)"><rect x="0" height="1" y="3.8600001335144043" width="38.665000915527344"></rect> <rect height="1" y="3.8600001335144043" width="38.665000915527344" x="129.08499908447266"></rect> <g transform="translate(41.665000915527344,0)"><g transform="scale(1)"><path d="M3.09-7.59L0.19-7.59L0.19-8.58L7.13-8.58L7.13-7.59L4.22-7.59L4.22 0L3.09 0L3.09-7.59ZM8.34-8.58L9.52-8.58L9.52 0L8.34 0L8.34-8.58ZM17.16 0L16.31-2.48L12.84-2.48L11.95 0L10.78 0L14.02-8.58L15.33-8.58L18.42 0L17.16 0ZM14.58-7.31L13.22-3.52L15.89-3.52L14.63-7.31L14.58-7.31ZM20.86-8.58L25.17-1.64L25.17-8.58L26.30-8.58L26.30 0L24.98 0L20.63-6.94L20.58-6.94L20.58 0L19.45 0L19.45-8.58L20.86-8.58ZM27.38-1.92L27.38-2.77L28.45-2.77L28.45-2.16Q28.45-0.75 29.77-0.75L29.77-0.75Q31.13-0.75 31.13-2.25L31.13-2.25L31.13-8.58L32.30-8.58L32.30-2.30Q32.25 0.09 29.81 0.14L29.81 0.14Q27.52 0.09 27.38-1.92L27.38-1.92ZM34.27-8.58L35.44-8.58L35.44 0L34.27 0L34.27-8.58ZM38.81-8.58L43.13-1.64L43.13-8.58L44.25-8.58L44.25 0L42.94 0L38.58-6.94L38.53-6.94L38.53 0L37.41 0L37.41-8.58L38.81-8.58ZM54.14-7.13L54.09-7.13L52.13 0L50.91 0L48.66-8.58L49.88-8.58L51.52-1.59L51.56-1.59L53.48-8.58L54.75-8.58L56.67-1.59L56.72-1.59L58.31-8.58L59.58-8.58L57.33 0L56.11 0L54.14-7.13ZM66.33 0L65.48-2.48L62.02-2.48L61.13 0L59.95 0L63.19-8.58L64.50-8.58L67.59 0L66.33 0ZM63.75-7.31L62.39-3.52L65.06-3.52L63.80-7.31L63.75-7.31ZM70.03-8.58L74.34-1.64L74.34-8.58L75.47-8.58L75.47 0L74.16 0L69.80-6.94L69.75-6.94L69.75 0L68.63 0L68.63-8.58L70.03-8.58ZM76.55-1.92L76.55-2.77L77.63-2.77L77.63-2.16Q77.63-0.75 78.94-0.75L78.94-0.75Q80.30-0.75 80.30-2.25L80.30-2.25L80.30-8.58L81.47-8.58L81.47-2.30Q81.42 0.09 78.98 0.14L78.98 0.14Q76.69 0.09 76.55-1.92L76.55-1.92ZM83.44-8.58L84.61-8.58L84.61 0L83.44 0L83.44-8.58Z" transform="translate(-0.1875, 8.578125)"></path></g></g></g></g></g><defs v-gra="od"></defs></svg>